HIERARCHY
ROOT Hips
{
	OFFSET -0.001795 -0.223333 0.028219
	CHANNELS 6 Xposition Yposition Zposition Zrotation Yrotation Xrotation 
	JOINT LeftUpLeg
	{
		OFFSET 0.069520 -0.091406 -0.006815
		CHANNELS 3 Zrotation Yrotation Xrotation
		JOINT LeftLeg
		{
			OFFSET 0.034277 -0.375199 -0.004496
			CHANNELS 3 Zrotation Yrotation Xrotation
			JOINT LeftFoot
			{
				OFFSET -0.013596 -0.397961 -0.043693
				CHANNELS 3 Zrotation Yrotation Xrotation
				JOINT LeftToe
				{
					OFFSET 0.026358 -0.055791 0.119288
					CHANNELS 3 Zrotation Yrotation Xrotation
					End Site
					{
						OFFSET 0.000000 0.000000 0.000000
					}
				}
			}
		}
	}
	JOINT RightUpLeg
	{
		OFFSET -0.067670 -0.090522 -0.004320
		CHANNELS 3 Zrotation Yrotation Xrotation
		JOINT RightLeg
		{
			OFFSET -0.038290 -0.382569 -0.008850
			CHANNELS 3 Zrotation Yrotation Xrotation
			JOINT RightFoot
			{
				OFFSET 0.015774 -0.398415 -0.042312
				CHANNELS 3 Zrotation Yrotation Xrotation
				JOINT RightToe
				{
					OFFSET -0.025372 -0.048144 0.123348
					CHANNELS 3 Zrotation Yrotation Xrotation
					End Site
					{
						OFFSET 0.000000 0.000000 0.000000
					}
				}
			}
		}
	}
	JOINT Spine
	{
		OFFSET -0.002533 0.108963 -0.026696
		CHANNELS 3 Zrotation Yrotation Xrotation
		JOINT Spine1
		{
			OFFSET 0.005487 0.135180 0.001092
			CHANNELS 3 Zrotation Yrotation Xrotation
			JOINT Spine2
			{
				OFFSET 0.001457 0.052922 0.025425
				CHANNELS 3 Zrotation Yrotation Xrotation
				JOINT Neck
				{
					OFFSET -0.002778 0.213870 -0.042857
					CHANNELS 3 Zrotation Yrotation Xrotation
					JOINT Head
					{
						OFFSET 0.005152 0.064970 0.051349
						CHANNELS 3 Zrotation Yrotation Xrotation
						End Site
						{
							OFFSET 0.000000 0.000000 0.000000
						}
					}
				}
				JOINT LeftShoulder
				{
					OFFSET 0.078845 0.121749 -0.034090
					CHANNELS 3 Zrotation Yrotation Xrotation
					JOINT LeftArm
					{
						OFFSET 0.090977 0.030469 -0.008868
						CHANNELS 3 Zrotation Yrotation Xrotation
						JOINT LeftForeArm
						{
							OFFSET 0.259612 -0.012772 -0.027456
							CHANNELS 3 Zrotation Yrotation Xrotation
							JOINT LeftHand
							{
								OFFSET 0.249234 0.008986 -0.001171
								CHANNELS 3 Zrotation Yrotation Xrotation
								End Site
								{
									OFFSET 0.000000 0.000000 0.000000
								}
							}
						}
					}
				}
				JOINT RightShoulder
				{
					OFFSET -0.081759 0.118833 -0.038615
					CHANNELS 3 Zrotation Yrotation Xrotation
					JOINT RightArm
					{
						OFFSET -0.096012 0.032551 -0.009143
						CHANNELS 3 Zrotation Yrotation Xrotation
						JOINT RightForeArm
						{
							OFFSET -0.253742 -0.013329 -0.021401
							CHANNELS 3 Zrotation Yrotation Xrotation
							JOINT RightHand
							{
								OFFSET -0.255298 0.007772 -0.005559
								CHANNELS 3 Zrotation Yrotation Xrotation
								End Site
								{
									OFFSET 0.000000 0.000000 0.000000
								}
							}
						}
					}
				}
			}
		}
	}
}
MOTION
Frames: 6
Frame Time: 0.050000
0.005264 1.284268 0.068354 -0.624762 -5.958264 5.283822 0.964734 -0.609778 -7.257945 -2.551743 0.408762 20.159316 -6.636661 1.028936 32.417745 0.000000 0.000000 0.000000 -0.869146 0.516099 -5.254940 0.075681 0.914158 17.556365 9.454235 -0.174464 35.475523 0.000000 0.000000 0.000000 4.569999 0.064747 -2.087085 -2.895678 1.296304 -3.852064 -1.769061 6.699844 10.295122 5.616536 -3.142806 -8.487070 0.000000 0.000000 0.000000 3.980395 -9.928934 3.390162 -35.016522 -9.190093 -2.054670 -76.964374 -81.087276 71.005760 0.000000 0.000000 0.000000 -4.544955 7.405245 2.456188 42.640488 13.376532 0.151299 -134.064179 87.619626 -125.424262 0.000000 0.000000 0.000000 
0.005127 1.347622 0.072451 -1.078623 -8.159401 3.826161 2.194138 -0.643275 -9.133647 -4.996195 1.956885 30.746693 -3.172710 2.843504 25.226641 0.000000 0.000000 0.000000 -0.879599 0.804185 -8.240612 1.582068 1.616952 31.475448 8.752587 -1.409003 35.719696 0.000000 0.000000 0.000000 4.652684 -0.077358 -0.124427 -2.807579 1.246720 -3.548031 -3.191528 9.683380 10.427883 8.420025 -4.466402 -11.236504 0.000000 0.000000 0.000000 -1.629876 -10.282081 3.296010 -44.403843 -4.736599 -4.090471 -47.688131 -76.410499 39.955501 0.000000 0.000000 0.000000 4.592481 5.291276 2.120865 50.387128 10.441863 -0.948023 35.120918 83.588329 38.800047 0.000000 0.000000 0.000000 
0.004837 1.376588 0.078300 -1.617187 -9.992629 3.960159 2.498065 -0.723829 -11.433349 -4.138324 2.066970 33.727377 -1.862009 4.224867 24.844599 0.000000 0.000000 0.000000 -0.051835 1.083790 -10.564093 2.352960 1.992936 36.419994 7.729896 -2.810912 35.398024 0.000000 0.000000 0.000000 5.535203 -0.182178 0.920474 -2.878655 1.232881 -4.503452 -3.224099 9.967300 11.192522 8.502968 -4.568069 -11.438218 0.000000 0.000000 0.000000 -7.220644 -9.834066 2.953564 -48.421127 1.391674 -6.782846 -28.022294 -68.140608 21.028703 0.000000 0.000000 0.000000 8.584450 4.575208 1.921660 56.309574 7.459272 -2.509233 20.502606 73.475439 21.159565 0.000000 0.000000 0.000000 
0.004539 1.381496 0.082386 -1.798625 -10.178315 2.958246 1.649541 -0.917187 -13.542834 -2.545717 1.582262 36.982964 -0.454368 4.018929 16.143448 0.000000 0.000000 0.000000 1.071387 1.542082 -13.700016 2.825060 2.131612 39.550598 6.456700 -0.990689 26.106308 0.000000 0.000000 0.000000 5.487588 -0.259730 2.037419 -3.144634 1.425410 -2.202466 -2.888387 8.585652 8.983010 8.377299 -5.604389 -6.172709 0.000000 0.000000 0.000000 -9.464588 -7.885117 2.158126 -51.434215 7.189329 -9.450262 -32.301956 -59.825946 20.856275 0.000000 0.000000 0.000000 12.579434 4.238302 1.597037 58.161558 2.729331 -4.774926 16.134957 63.418883 13.945062 0.000000 0.000000 0.000000 
0.003768 1.367439 0.083576 -2.392996 -11.419012 4.110308 3.256365 -0.769519 -15.645819 -3.675389 2.240648 35.776506 -0.768369 3.476649 16.513942 0.000000 0.000000 0.000000 1.680837 1.682430 -14.361859 1.362886 2.620121 36.334340 6.204476 1.566432 19.171816 0.000000 0.000000 0.000000 6.117536 -0.242901 1.487850 -2.834619 1.255009 -2.796822 -3.657389 10.282042 10.333367 9.852708 -6.594474 -6.668426 0.000000 0.000000 0.000000 -7.043817 -5.495063 1.221046 -56.560775 7.873975 -11.120306 -35.628508 -49.682507 18.336039 0.000000 0.000000 0.000000 10.129655 0.404354 -0.011444 61.594161 0.103100 -6.273572 27.703547 51.757096 16.854535 0.000000 0.000000 0.000000 
0.002769 1.320907 0.082916 -2.559114 -9.744814 8.042890 4.337598 -0.761895 -18.801832 -3.175098 1.233978 28.079740 -2.484694 2.941523 23.533109 0.000000 0.000000 0.000000 3.350818 2.166874 -16.851718 -1.470740 2.596045 28.406897 7.233653 1.779329 22.286534 0.000000 0.000000 0.000000 5.415602 -0.155870 -0.132512 -1.977779 0.815797 -6.325117 -3.034492 9.838817 11.993432 9.632034 -6.281000 -7.372986 0.000000 0.000000 0.000000 -5.831703 -4.713344 1.031699 -58.928543 10.049854 -12.882670 -31.419452 -41.039754 13.226080 0.000000 0.000000 0.000000 9.160074 -1.403924 -0.769060 61.711486 -5.278306 -9.052120 30.345321 46.219627 15.923222 0.000000 0.000000 0.000000 
